<svg id="_1f345" data-name="1f345" xmlns="http://www.w3.org/2000/svg" viewBox="0 0 34.95 35.86"><defs><style>.cls-1{fill:#dd2e44;}.cls-2{fill:#77b255;}</style></defs><title>tomato</title><path class="cls-1" d="M23.49,6.34a11.78,11.78,0,0,0-2,.18c-.82-.1-2.74-.23-3.59-.23C9.44,6.29,2,9.47,2,20.59c0,9,7,16.36,17,16.36s18-7.33,18-16.36C37,9.34,27.59,6.34,23.49,6.34Z" transform="translate(-2.03 -1.09)"/><path class="cls-2" d="M9.44,1.09C11.08,2.73,12.21,3.36,12.71,6,13,7.57,15,7.51,15,7.51a24.43,24.43,0,0,0-5.54,3.4S14.35,9.27,16,9.27c0,0,3.27,1.64,3.27,3.28,0,0,0-3.28-1.64-3.28,0,0,4.91,0,4.91,3.28,0,0,0-4.91-1.63-4.91,0,0,4.91-1.64,6.54,0A6.85,6.85,0,0,0,22.53,6a7.17,7.17,0,0,1,4.91-1.64s-5.28-1.51-6.92,1.77c0,0-1.39-1.39,1.38-4.16,0,0-4.28.76-4.28,4A4,4,0,0,1,15,4.74,15.92,15.92,0,0,0,9.44,1.09Z" transform="translate(-2.03 -1.09)"/></svg>